<?xml version="1.0" standalone="no"?>
<!DOCTYPE svg PUBLIC "-//W3C//DTD SVG 20010904//EN"
 "http://www.w3.org/TR/2001/REC-SVG-20010904/DTD/svg10.dtd">
<svg version="1.0" xmlns="http://www.w3.org/2000/svg"
 width="95.000000pt" height="95.000000pt" viewBox="0 0 95.000000 95.000000"
 preserveAspectRatio="xMidYMid meet">

<g transform="translate(0.000000,95.000000) scale(0.100000,-0.100000)"
fill="#000000" stroke="none">
<path d="M395 939 c-242 -35 -428 -291 -387 -532 46 -268 297 -446 553 -393
103 22 174 60 245 130 230 231 164 615 -131 756 -52 25 -172 52 -210 49 -5 -1
-37 -5 -70 -10z m163 -79 c206 -48 343 -255 302 -457 -13 -65 -60 -160 -95
-193 l-22 -21 -44 29 c-69 46 -113 57 -229 56 -114 -1 -169 -15 -227 -60 -33
-25 -35 -25 -54 -9 -36 34 -78 111 -95 175 -32 126 1 260 88 355 28 31 69 67
92 80 81 48 194 65 284 45z m65 -688 c26 -11 47 -25 47 -30 0 -5 -24 -20 -52
-33 -69 -30 -198 -33 -275 -6 -84 29 -82 46 9 79 72 25 203 21 271 -10z"/>
<path d="M390 728 c-110 -56 -123 -250 -24 -352 86 -89 227 -44 270 87 22 66
15 162 -16 213 -44 70 -147 93 -230 52z m135 -64 c41 -16 59 -121 31 -187 -38
-90 -117 -92 -162 -5 -28 55 -10 176 28 191 19 8 84 8 103 1z"/>
</g>
</svg>
