<?xml version="1.0" standalone="no"?>
<!DOCTYPE svg PUBLIC "-//W3C//DTD SVG 20010904//EN"
 "http://www.w3.org/TR/2001/REC-SVG-20010904/DTD/svg10.dtd">
<svg version="1.0" xmlns="http://www.w3.org/2000/svg"
 width="535.000000pt" height="143.000000pt" viewBox="0 0 535.000000 143.000000"
 preserveAspectRatio="xMidYMid meet">

<g transform="translate(0.000000,143.000000) scale(0.100000,-0.100000)"
fill="#000000" stroke="none">
<path d="M580 1394 c-154 -33 -255 -87 -361 -193 -114 -115 -182 -254 -203
-420 l-7 -54 128 7 c141 8 256 28 320 56 95 42 175 146 202 265 13 58 30 226
31 303 0 60 0 60 -110 36z"/>
<path d="M734 1289 c13 -241 39 -332 119 -416 87 -92 192 -126 430 -139 l128
-7 -7 54 c-21 166 -89 305 -203 420 -114 114 -253 181 -420 204 l-54 7 7 -123z"/>
<path d="M2002 1220 c-98 -21 -187 -92 -236 -188 -47 -94 -60 -157 -60 -302 0
-142 15 -223 56 -303 31 -61 105 -134 167 -164 50 -25 67 -28 156 -28 89 0
107 3 163 29 l62 29 0 68 0 68 -58 -31 c-106 -54 -216 -49 -287 14 -58 50 -78
120 -83 289 -6 214 25 315 115 370 56 35 165 33 247 -4 32 -15 60 -27 62 -27
2 0 4 29 4 66 l0 65 -56 26 c-62 28 -177 39 -252 23z"/>
<path d="M3090 950 c-25 -6 -69 -19 -97 -31 l-53 -21 0 -69 c0 -63 9 -85 25
-59 12 19 137 50 202 50 82 0 113 -25 113 -93 l0 -44 -92 -6 c-102 -6 -163
-24 -220 -64 -95 -65 -105 -221 -21 -314 74 -82 229 -91 310 -16 24 21 22 23
38 -28 3 -12 22 -15 82 -15 l79 0 -3 268 c-4 344 -14 378 -113 421 -58 25
-181 35 -250 21z m188 -472 c-3 -81 -3 -82 -37 -102 -21 -12 -51 -19 -79 -18
-39 0 -51 5 -74 31 -34 38 -37 87 -7 125 24 31 64 44 142 45 l58 1 -3 -82z"/>
<path d="M2314 936 c-3 -7 -4 -38 -2 -67 l3 -54 98 -3 97 -3 0 -284 0 -285 85
0 85 0 0 285 0 285 95 0 95 0 0 70 0 70 -275 0 c-224 0 -277 -3 -281 -14z"/>
<path d="M3520 880 l0 -70 95 0 95 0 2 -282 3 -283 83 -3 82 -3 0 285 0 285
98 3 97 3 3 68 3 67 -281 0 -280 0 0 -70z"/>
<path d="M4155 937 c-3 -6 -4 -165 -3 -352 l3 -340 139 -3 c218 -4 313 30 365
133 50 96 28 237 -46 295 -49 38 -96 52 -195 57 l-98 6 0 108 0 109 -80 0
c-56 0 -82 -4 -85 -13z m331 -370 c32 -37 34 -127 5 -156 -23 -23 -81 -41
-133 -41 l-38 0 0 116 0 116 71 -4 c63 -3 74 -7 95 -31z"/>
<path d="M4780 595 l0 -355 73 0 72 0 125 214 125 215 3 -215 2 -214 80 0 80
0 0 355 0 355 -73 0 -73 0 -127 -217 -127 -218 0 218 0 217 -80 0 -80 0 0
-355z"/>
<path d="M15 644 c10 -74 43 -190 67 -237 66 -130 176 -245 296 -310 67 -36
236 -87 288 -87 28 0 29 10 14 193 -17 202 -48 286 -135 366 -87 79 -175 104
-413 117 l-124 7 7 -49z"/>
<path d="M1175 679 c-156 -15 -243 -49 -313 -121 -83 -84 -116 -193 -128 -422
l-7 -124 49 5 c241 24 450 169 562 390 24 46 57 163 67 236 l6 47 -73 -1 c-40
-1 -113 -6 -163 -10z"/>
</g>
</svg>
