<?xml version="1.0" standalone="no"?>
<!DOCTYPE svg PUBLIC "-//W3C//DTD SVG 20010904//EN"
 "http://www.w3.org/TR/2001/REC-SVG-20010904/DTD/svg10.dtd">
<svg version="1.0" xmlns="http://www.w3.org/2000/svg"
 width="82.000000pt" height="82.000000pt" viewBox="0 0 82.000000 82.000000"
 preserveAspectRatio="xMidYMid meet">

<g transform="translate(0.000000,82.000000) scale(0.100000,-0.100000)"
fill="#000000" stroke="none">
<path d="M258 797 c-253 -95 -333 -391 -158 -590 113 -128 328 -157 463 -64
l28 19 83 -81 c82 -79 110 -93 134 -69 24 24 10 52 -69 134 l-81 83 19 28 c66
96 73 244 17 354 -36 71 -85 121 -156 160 -56 29 -73 33 -153 36 -59 2 -103
-1 -127 -10z m231 -96 c59 -31 94 -65 126 -123 25 -45 29 -64 29 -128 0 -64
-4 -83 -29 -128 -54 -100 -133 -147 -245 -147 -112 0 -191 47 -245 147 -25 45
-29 64 -29 128 0 78 11 112 61 177 26 36 97 81 146 94 48 12 142 2 186 -20z"/>
</g>
</svg>
