<?xml version="1.0" encoding="UTF-8"?>
<!DOCTYPE svg PUBLIC "-//W3C//DTD SVG 1.1//EN" "http://www.w3.org/Graphics/SVG/1.1/DTD/svg11.dtd">
<svg xmlns="http://www.w3.org/2000/svg" version="1.1" width="119px" height="141px" style="shape-rendering:geometricPrecision; text-rendering:geometricPrecision; image-rendering:optimizeQuality; fill-rule:evenodd; clip-rule:evenodd" xmlns:xlink="http://www.w3.org/1999/xlink">
<g><path style="opacity:1" fill="#fefefe" d="M -0.5,-0.5 C 39.1667,-0.5 78.8333,-0.5 118.5,-0.5C 118.5,46.5 118.5,93.5 118.5,140.5C 78.8333,140.5 39.1667,140.5 -0.5,140.5C -0.5,140.167 -0.5,139.833 -0.5,139.5C 1.16667,139.5 2.83333,139.5 4.5,139.5C 4.5,136.5 4.5,133.5 4.5,130.5C 13.1432,131.688 16.9766,128.022 16,119.5C 15.1667,117.333 13.6667,115.833 11.5,115C 7.51383,114.501 3.51383,114.334 -0.5,114.5C -0.5,76.1667 -0.5,37.8333 -0.5,-0.5 Z"/></g>
<g><path style="opacity:1" fill="#8d8d8d" d="M 50.5,0.5 C 74.0566,-1.74739 89.5566,8.25261 97,30.5C 96.8774,39.5251 97.044,48.5251 97.5,57.5C 96.1283,77.3744 85.795,89.8744 66.5,95C 43.029,97.1834 27.8623,87.0168 21,64.5C 20.0802,51.7763 20.4135,39.1097 22,26.5C 27.6025,13.3906 37.1025,4.72395 50.5,0.5 Z"/></g>
<g><path style="opacity:1" fill="#fdfdfd" d="M 49.5,20.5 C 71.9323,17.5351 86.9323,26.5351 94.5,47.5C 90.2753,61.8915 80.942,71.0582 66.5,75C 44.7043,77.4385 30.371,68.2718 23.5,47.5C 27.4513,33.8833 36.118,24.8833 49.5,20.5 Z"/></g>
<g><path style="opacity:1" fill="#8d8d8d" d="M 50.5,33.5 C 58.4535,35.6429 65.7868,39.1429 72.5,44C 73.7596,45.8138 73.7596,47.6471 72.5,49.5C 49.1388,67.5029 41.8055,62.1695 50.5,33.5 Z"/></g>
<g><path style="opacity:1" fill="#959595" d="M -0.5,114.5 C 3.51383,114.334 7.51383,114.501 11.5,115C 13.6667,115.833 15.1667,117.333 16,119.5C 16.9766,128.022 13.1432,131.688 4.5,130.5C 4.5,133.5 4.5,136.5 4.5,139.5C 2.83333,139.5 1.16667,139.5 -0.5,139.5C -0.5,131.167 -0.5,122.833 -0.5,114.5 Z"/></g>
<g><path style="opacity:1" fill="#b5b5b5" d="M 9.5,118.5 C 7.83333,118.5 6.16667,118.5 4.5,118.5C 4.5,121.5 4.5,124.5 4.5,127.5C 3.52056,124.375 3.18723,121.042 3.5,117.5C 5.73535,117.205 7.73535,117.539 9.5,118.5 Z"/></g>
<g><path style="opacity:1" fill="#fefefe" d="M 9.5,118.5 C 10.1174,118.611 10.6174,118.944 11,119.5C 12.6659,125.331 10.4992,127.998 4.5,127.5C 4.5,124.5 4.5,121.5 4.5,118.5C 6.16667,118.5 7.83333,118.5 9.5,118.5 Z"/></g>
<g><path style="opacity:1" fill="#939393" d="M 23.5,121.5 C 33.6591,120.158 37.8257,124.491 36,134.5C 31.2849,140.221 25.9516,140.888 20,136.5C 17.2062,130.408 18.3729,125.408 23.5,121.5 Z"/></g>
<g><path style="opacity:1" fill="#8f8f8f" d="M 44.5,121.5 C 48.1667,121.5 51.8333,121.5 55.5,121.5C 55.5,127.5 55.5,133.5 55.5,139.5C 54.1667,139.5 52.8333,139.5 51.5,139.5C 51.5,134.5 51.5,129.5 51.5,124.5C 50.1667,124.5 48.8333,124.5 47.5,124.5C 47.8866,129.08 47.0532,133.414 45,137.5C 43.103,139.016 40.9363,139.683 38.5,139.5C 38.5,138.5 38.5,137.5 38.5,136.5C 39.8221,136.67 40.9887,136.337 42,135.5C 43.7921,131 44.6254,126.333 44.5,121.5 Z"/></g>
<g><path style="opacity:1" fill="#969696" d="M 60.5,121.5 C 61.8333,121.5 63.1667,121.5 64.5,121.5C 64.3345,125.514 64.5012,129.514 65,133.5C 67.6244,129.752 70.1244,125.919 72.5,122C 74.1341,121.506 75.8008,121.34 77.5,121.5C 77.5,127.5 77.5,133.5 77.5,139.5C 76.1667,139.5 74.8333,139.5 73.5,139.5C 73.6655,135.486 73.4988,131.486 73,127.5C 70.3756,131.248 67.8756,135.081 65.5,139C 63.8659,139.494 62.1992,139.66 60.5,139.5C 60.5,133.5 60.5,127.5 60.5,121.5 Z"/></g>
<g><path style="opacity:1" fill="#939393" d="M 88.5,132.5 C 88.44,131.957 88.1067,131.624 87.5,131.5C 86.52,134.086 86.1866,136.753 86.5,139.5C 85.1667,139.5 83.8333,139.5 82.5,139.5C 82.5,133.5 82.5,127.5 82.5,121.5C 83.8333,121.5 85.1667,121.5 86.5,121.5C 86.3359,124.187 86.5026,126.854 87,129.5C 88.8333,127.167 90.6667,124.833 92.5,122.5C 94.1667,121.167 95.8333,121.167 97.5,122.5C 95.2962,124.867 93.2962,127.367 91.5,130C 93.8193,132.989 96.1527,135.989 98.5,139C 93.5365,139.564 90.2032,137.397 88.5,132.5 Z"/></g>
<g><path style="opacity:1" fill="#919191" d="M 101.5,121.5 C 102.833,121.5 104.167,121.5 105.5,121.5C 105.334,125.514 105.501,129.514 106,133.5C 108.333,129.833 110.667,126.167 113,122.5C 114.356,121.62 115.856,121.286 117.5,121.5C 117.5,127.5 117.5,133.5 117.5,139.5C 116.5,139.5 115.5,139.5 114.5,139.5C 114.666,135.486 114.499,131.486 114,127.5C 111.5,131.167 109,134.833 106.5,138.5C 104.955,139.452 103.288,139.785 101.5,139.5C 101.5,133.5 101.5,127.5 101.5,121.5 Z"/></g>
<g><path style="opacity:1" fill="#fbfbfb" d="M 25.5,124.5 C 33.1028,125.956 34.4361,129.789 29.5,136C 23.6868,136.171 21.5202,133.338 23,127.5C 24.045,126.627 24.8783,125.627 25.5,124.5 Z"/></g>
<g><path style="opacity:1" fill="#d3d3d3" d="M 88.5,132.5 C 87.8333,134.833 87.1667,137.167 86.5,139.5C 86.1866,136.753 86.52,134.086 87.5,131.5C 88.1067,131.624 88.44,131.957 88.5,132.5 Z"/></g>
</svg>
